<?xml version="1.0" encoding="UTF-8" standalone="no"?>
<svg
   width="250"
   height="250"
   viewBox="0 0 250 250"
   version="1.1"
   id="svg50"
   sodipodi:docname="logo.svg"
   inkscape:version="1.2.1 (9c6d41e410, 2022-07-14)"
   xmlns:inkscape="http://www.inkscape.org/namespaces/inkscape"
   xmlns:sodipodi="http://sodipodi.sourceforge.net/DTD/sodipodi-0.dtd"
   xmlns:xlink="http://www.w3.org/1999/xlink"
   xmlns="http://www.w3.org/2000/svg"
   xmlns:svg="http://www.w3.org/2000/svg">
  <sodipodi:namedview
     id="namedview52"
     pagecolor="#ffffff"
     bordercolor="#000000"
     borderopacity="0.25"
     inkscape:showpageshadow="2"
     inkscape:pageopacity="0.0"
     inkscape:pagecheckerboard="0"
     inkscape:deskcolor="#d1d1d1"
     showgrid="false"
     inkscape:zoom="0.42720563"
     inkscape:cx="2.3407931"
     inkscape:cy="662.44445"
     inkscape:window-width="2560"
     inkscape:window-height="1494"
     inkscape:window-x="-11"
     inkscape:window-y="-11"
     inkscape:window-maximized="1"
     inkscape:current-layer="svg50" />
  <defs
     id="defs39">
    <linearGradient
       gradientUnits="userSpaceOnUse"
       x1="-51.472"
       y1="29.181002"
       x2="102.94419"
       y2="-59.612125"
       id="gradient_1">
      <stop
         offset="0%"
         stop-color="#2A72F8"
         id="stop28" />
      <stop
         offset="50%"
         stop-color="#2B5AA1"
         id="stop30" />
      <stop
         offset="100%"
         stop-color="#9A20E4"
         id="stop32" />
    </linearGradient>
    <path
       d="M 0,0 H 1562.5 V 1562.5 H 0 Z"
       id="path_1" />
    <clipPath
       id="mask_1">
      <use
         xlink:href="#path_1"
         id="use36" />
    </clipPath>
  </defs>
  <g
     clip-path="url(#mask_1)"
     id="g46"
     transform="translate(-2e-4,-2e-4)">
    <g
       id="Group"
       transform="translate(0.9552,0.9552)">
      <path
         d="M 124.045,0 C 192.517,0 248.09,55.5721 248.09,124.045 248.09,192.517 192.517,248.09 124.045,248.09 55.5721,248.09 0,192.517 0,124.045 0,55.5721 55.5721,0 124.045,0 Z"
         id="Фигура"
         fill="#ffffff"
         stroke="none" />
      <path
         d="m 25.0862,124.67 c 0,54.792 46.6667,99.167 104.1668,99.167 V 25.5032 C 71.7529,25.5032 25.0862,70.0867 25.0862,124.67 Z M 152.586,43.0032 V 204.878 c 42.084,-5.208 70,-39.583 70,-81.041 0,-41.4591 -27.916,-75.8338 -70,-80.8338 z"
         id="path43"
         fill="url(#gradient_1)"
         fill-rule="evenodd"
         stroke="none"
         style="fill:url(#gradient_1)" />
    </g>
  </g>
</svg>
